<?xml version="1.0" encoding="utf-8"?>
<!-- Generator: Adobe Illustrator 27.2.0, SVG Export Plug-In . SVG Version: 6.00 Build 0)  -->
<svg version="1.1" xmlns="http://www.w3.org/2000/svg" xmlns:xlink="http://www.w3.org/1999/xlink" x="0px" y="0px"
	 viewBox="0 0 301.9 78.65" style="enable-background:new 0 0 301.9 78.65;" xml:space="preserve">
<style type="text/css">
	.st0{fill:#FFFFFF;}
</style>
<g id="Layer_4">
</g>
<g id="Layer_2">
</g>
<g id="Layer_1">
</g>
<g id="Layer_3">
	<path class="st0" d="M33.46,35.92L18.29,6.03H6.48v49.21h10.44V24.56l16.54,32.17l16.62-32.17v30.69h10.44V6.03H48.71L33.46,35.92z
		"/>
	<path class="st0" d="M89.04,21.09L80.8,41.38l-7.16-20.29h-10.3L75.7,54.44l-6.63,16.38h10.37l19.89-49.73H89.04z"/>
	<path class="st0" d="M117.75,48.09c-5.64,0-9.68-4.2-9.68-10.03c0-5.61,3.96-9.81,9.3-9.81c1.36-0.01,2.71,0.25,3.95,0.77
		c1.25,0.52,2.37,1.29,3.29,2.25l6.48-5.68c-4.5-3.91-8.85-5.68-14.11-5.68c-10.98,0-18.75,7.67-18.75,18.45
		c0,10.39,7.93,18.08,18.68,18.08c2.5,0.06,4.98-0.36,7.31-1.23c2.33-0.87,4.46-2.18,6.26-3.86l-5.83-6.14
		C122.13,47.35,120.29,48.09,117.75,48.09z"/>
	<path class="st0" d="M149.18,19.9c-10.9,0-18.61,7.52-18.61,18.22s8,18.3,19.21,18.3c7.48,0,13.65-3.76,17.15-10.39l-8.92-2.36
		c-0.81,1.39-2,2.54-3.44,3.33c-1.44,0.78-3.07,1.17-4.72,1.13c-4.8,0-8.39-2.97-9.2-7.67h27.6l0.08-1.84
		C168.34,27.58,160.46,19.9,149.18,19.9z M140.64,35.03c0.91-4.65,4.04-7.23,8.69-7.23c4.81,0,8.16,2.73,9,7.23H140.64z"/>
	<path class="st0" d="M182.35,6.03h-9.68v49.21h9.68V6.03z"/>
	<path class="st0" d="M194.54,6.1c-0.72-0.02-1.43,0.1-2.1,0.35c-0.67,0.26-1.27,0.64-1.78,1.13c-0.51,0.49-0.9,1.08-1.17,1.72
		c-0.26,0.65-0.39,1.34-0.37,2.03c-0.02,0.69,0.11,1.38,0.38,2.02c0.27,0.64,0.66,1.22,1.17,1.71c0.51,0.49,1.11,0.87,1.78,1.12
		c0.66,0.25,1.38,0.37,2.09,0.35c0.7,0.02,1.4-0.09,2.06-0.34c0.65-0.25,1.25-0.62,1.75-1.1c0.5-0.48,0.9-1.05,1.17-1.68
		c0.27-0.63,0.4-1.3,0.39-1.98c0.04-0.7-0.07-1.4-0.32-2.06c-0.25-0.66-0.64-1.26-1.15-1.76s-1.11-0.9-1.79-1.16
		C195.98,6.2,195.26,6.08,194.54,6.1L194.54,6.1z"/>
	<path class="st0" d="M199.35,21.08h-9.68v34.16h9.68V21.08z"/>
	<path class="st0" d="M227.24,42.7c0,3.62-2.13,5.83-5.72,5.83c-3.59,0-5.86-2.58-5.86-6.42V21.08h-9.68V42.7
		c0,4.5,1.22,7.75,3.73,9.97c2.74,2.43,6.94,3.76,11.81,3.76c4.65,0,8.62-1.25,11.44-3.54c2.82-2.29,3.96-5.19,3.96-10.19V21.08
		h-9.68V42.7z"/>
	<path class="st0" d="M283.2,19.9c-5.04,0-8.31,1.77-10.67,5.68c-1.68-3.71-5.04-5.68-9.61-5.68s-7.47,1.7-9.68,5.46v-4.28h-9.68
		v34.13h9.68V34.95c0-4.72,1.9-7.15,5.57-7.15c3.5,0,5.37,2.43,5.37,7.15v20.3h9.68V34.66c0-4.36,2.05-6.86,5.63-6.86
		c3.58,0,5.41,2.23,5.41,6.86v20.58h9.68V32.89c0-5.19-0.68-7.52-2.82-9.82C289.76,21.01,286.78,19.9,283.2,19.9z"/>
	<path class="st0" d="M60.59,67H6.48v3.81h54.11V67z"/>
	<path class="st0" d="M294.56,67H93.36v3.81h201.2V67z"/>
</g>
</svg>
